<?xml version="1.0" encoding="utf-8"?>
<!-- Generator: Adobe Illustrator 19.0.0, SVG Export Plug-In . SVG Version: 6.00 Build 0)  -->
<svg version="1.1" id="Layer_1" xmlns="http://www.w3.org/2000/svg" xmlns:xlink="http://www.w3.org/1999/xlink" x="0px" y="0px"
	 viewBox="0 0 14400 14400" enable-background="new 0 0 14400 14400" xml:space="preserve">
<rect id="XMLID_1_" x="6227.2" y="6646.1" fill="#FFFFFF" width="1944.3" height="1103.9"/>
<g id="XMLID_110_">
	<defs>
		<rect id="XMLID_64_" x="6445.1" y="6831" width="1208.7" height="298.3"/>
	</defs>
	<clipPath id="XMLID_1638_">
		<use xlink:href="#XMLID_64_"  overflow="visible"/>
	</clipPath>
	<path id="XMLID_94_" clip-path="url(#XMLID_1638_)" fill="#373535" d="M7340.5,6962.7c-1.1,10.2-7.8,19.1-29.5,19.1
		c-19.1,0-25.5-7.6-25.5-16.5c0-0.9,0.1-2,0.2-3.1l5.8-47.7c1.2-10.2,7.7-19.1,29.4-19.1c19,0,25.5,7.4,25.5,16.5
		c0,0.9-0.1,2-0.2,3.1l-0.6,5.6c-0.2,1.7-0.9,2.5-2.5,2.5h-7.3c-1.7,0-2.2-1-2-2.5l0.5-3.6c0.1-0.7,0.1-1.7,0.1-2.4
		c0-5.6-4.1-8.9-14.3-8.9c-11.2,0-15.9,4.1-16.7,10.8l-5.3,43.6c-0.1,0.9-0.1,1.7-0.1,2.4c0,5.7,4.1,9.1,14.1,9.1
		c11.2,0,16.1-4.1,16.9-10.8l0.6-5.8c0.1-1.6,0.9-2.4,2.6-2.4h7.2c1.9,0,2.1,1,2,2.4L7340.5,6962.7z"/>
	<path id="XMLID_143_" clip-path="url(#XMLID_1638_)" fill="#373535" d="M7391.5,6896.4c1.6,0,2.4,0.7,2.6,2.4l14.4,79.7
		c0.2,1.5-0.4,2.4-2,2.4h-7.7c-1.6,0-2.4-0.9-2.6-2.4l-3.3-19.2h-26.2l-8.2,19.2c-0.6,1.5-1.2,2.4-3,2.4h-7.2
		c-1.7,0-2.1-0.9-1.5-2.4l33.7-79.7c0.7-1.6,1.6-2.4,3.2-2.4H7391.5z M7387.3,6926.9c-1-5.3-1.2-18.4-1.2-18.4
		c-0.4,1.1-3.5,13.2-5.6,18.1l-9.8,22.8h20.7L7387.3,6926.9z"/>
	<path id="XMLID_91_" clip-path="url(#XMLID_1638_)" fill="#373535" d="M7474.7,6962.7c-1.1,10.2-7.8,19.1-29.5,19.1
		c-19.1,0-25.5-7.6-25.5-16.5c0-0.9,0.1-2,0.2-3.1l5.8-47.7c1.2-10.2,7.7-19.1,29.4-19.1c19,0,25.5,7.4,25.5,16.5
		c0,0.9-0.1,2-0.2,3.1l-0.6,5.6c-0.2,1.7-0.9,2.5-2.5,2.5h-7.3c-1.7,0-2.2-1-2-2.5l0.5-3.6c0.1-0.7,0.1-1.7,0.1-2.4
		c0-5.6-4.1-8.9-14.3-8.9c-11.2,0-15.9,4.1-16.7,10.8l-5.3,43.6c-0.1,0.9-0.1,1.7-0.1,2.4c0,5.7,4.1,9.1,14.1,9.1
		c11.2,0,16.1-4.1,16.9-10.8l0.6-5.8c0.1-1.6,0.9-2.4,2.6-2.4h7.2c1.9,0,2.1,1,2,2.4L7474.7,6962.7z"/>
	<path id="XMLID_90_" clip-path="url(#XMLID_1638_)" fill="#373535" d="M7506.6,6931.5h32.1l4-32.6c0.2-1.7,1-2.5,2.7-2.5h7.6
		c1.6,0,2.1,0.7,1.9,2.5l-9.8,79.4c-0.2,1.7-0.7,2.5-2.4,2.5h-7.6c-1.7,0-2.4-0.9-2.1-2.5l4.5-36.5h-32.1l-4.6,36.5
		c-0.2,1.6-0.7,2.5-2.5,2.5h-7.6c-1.6,0-2.4-0.7-2.1-2.5l9.8-79.4c0.2-1.7,1-2.5,2.6-2.5h7.6c1.7,0,2.2,0.7,2,2.5L7506.6,6931.5z"/>
	<path id="XMLID_89_" clip-path="url(#XMLID_1638_)" fill="#373535" d="M7567.4,6980.8c-1.6,0-2.4-0.7-2.1-2.5l9.8-79.4
		c0.2-1.7,1-2.5,2.6-2.5h42.4c1.6,0,2.4,0.6,2.1,2.4l-0.7,5.6c-0.2,1.7-1,2.4-2.6,2.4h-32.5l-3.1,25.1h30.4c1.6,0,2.2,0.6,2,2.4
		l-0.6,5.3c-0.2,1.6-1,2.4-2.6,2.4H7582l-3.6,28.7h33.8c1.7,0,2.5,0.5,2.2,2.2l-0.7,5.7c-0.2,1.7-0.9,2.4-2.6,2.4H7567.4z"/>
	<path id="XMLID_88_" clip-path="url(#XMLID_1638_)" fill="#373535" d="M6804.5,6980.8c-2.2,0-3.2-1-3.6-3.1l-13.5-78.2
		c-0.4-2,0.5-3.1,2.7-3.1h11.5c2.2,0,2.9,1.1,3.2,3.1l6.8,42.2c1,6.3,0.9,17.9,0.9,18c0.1-0.6,3.2-12.5,5.5-17.9l17.3-42.3
		c0.9-2,1.9-3.1,4.1-3.1h11c2.1,0,2.7,1.1,1.9,3.1l-32.8,78.2c-0.9,2.1-2,3.1-4.2,3.1H6804.5z"/>
	<path id="XMLID_136_" clip-path="url(#XMLID_1638_)" fill="#373535" d="M6887.5,6896.4c2.1,0,3,1,3.4,3.1l13.7,78.2
		c0.4,2-0.4,3.1-2.6,3.1H6891c-2.2,0-3-1.1-3.4-3.1l-2.5-15.1h-23.1l-6.2,15.1c-0.7,2-1.7,3.1-4,3.1h-10.3c-2.1,0-2.9-1.1-2-3.1
		l32.8-78.2c0.9-2.1,2.1-3.1,4.2-3.1H6887.5z M6880.8,6935.5c-1.1-6.5-1-22.7-1-22.7c-0.1,0.5-4.1,17.1-6.5,22.6l-6,13.9h15.8
		L6880.8,6935.5z"/>
	<path id="XMLID_133_" clip-path="url(#XMLID_1638_)" fill="#373535" d="M6935.4,6948.6l-3.5,28.9c-0.2,2.2-1.1,3.2-3.4,3.2h-10.8
		c-1.7,0-3.1-0.6-2.7-3.2l9.7-77.9c0.2-2.2,1.2-3.2,3.3-3.2h25.2c20.4,0,28.4,8.8,28.4,19c0,0.7,0,1.9-0.1,2.9l-1.2,10.8
		c-0.9,7.4-5.1,14.3-15.6,17.5l9.3,31c0.6,2-1.1,3.2-3.2,3.2h-10.7c-2,0-2.4-1.5-2.9-3.2l-8.7-28.9h-0.2H6935.4z M6940.3,6910.3
		l-3.1,24.4h12.4c8.6,0,13.7-2.5,14.5-8.7l0.7-5.1c0.1-1,0.1-1.7,0.1-2.2c0-5.5-3.7-8.4-12-8.4H6940.3z"/>
	<path id="XMLID_83_" clip-path="url(#XMLID_1638_)" fill="#373535" d="M7049.5,6977.7c-0.2,2.1-1,3.1-3.2,3.1h-9.3
		c-1.7,0-2.4-0.5-2.9-1.5l-19-41.1c-1.4-3.1-3-7.4-3.7-10.2l-6.1,49.6c-0.2,2.1-1,3.1-3.2,3.1h-9.8c-2.2,0-3-1-2.7-3.1l9.6-78.2
		c0.2-2.1,1.2-3.1,3.5-3.1h9.3c1.5,0,2.2,0.4,2.6,1.2l19.7,42.8c1.1,2.5,2.6,6.5,3.1,8.7l6.1-49.6c0.2-2.1,1.2-3.1,3.3-3.1h9.8
		c2.2,0,2.9,1,2.6,3.1L7049.5,6977.7z"/>
	<path id="XMLID_82_" clip-path="url(#XMLID_1638_)" fill="#373535" d="M7084,6977.6c-0.2,2.2-1.1,3.2-3.4,3.2h-10.8
		c-2.1,0-3-1-2.7-3.2l9.7-77.9c0.2-2.2,1.2-3.2,3.4-3.2h10.8c2.2,0,2.9,1,2.6,3.2L7084,6977.6z"/>
	<path id="XMLID_81_" clip-path="url(#XMLID_1638_)" fill="#373535" d="M7147.9,6917.9c0.1-1,0.1-0.9,0.1-1.2
		c0-5.2-3.8-7.8-11.3-7.8c-7.9,0-12.4,3-13,9.1l-0.1,1.2c-0.1,1.1-0.1,1.5-0.1,2c0,3.4,2.2,4.5,4.2,5.2l20.5,7.7
		c8.2,3.1,12.8,8.7,12.8,16.1c0,0.6-0.1,1.9-0.2,3l-0.9,8.4c-1.1,10.4-8.8,20.2-31.5,20.2c-20.2,0-27.9-8.6-27.9-18.1
		c0-0.5,0-1.4,0.3-3l0.9-6.9c0.2-2.2,1.2-3.2,3.4-3.2h10.4c2.2,0,2.9,1.1,2.6,3.2l-0.6,4.7c-0.1,1-0.1,1.7-0.1,2.4
		c0,5.2,4.3,7.6,12.3,7.6c8.3,0,13.2-2.9,14-9.1l0.5-3.5c0.1-0.9,0.1-1.5,0.1-1.7c0-4.1-5-6.2-9.4-7.9l-17.3-6.8
		c-6.2-2.5-10.7-7.8-10.7-14.5c0-0.6,0.1-1.7,0.3-3l0.7-6.2c1.2-10.4,7.7-20.2,30.2-20.2c20,0,26.8,8.6,26.8,17.7
		c0,0.6,0,1.1-0.1,2.5l-0.5,5.1c-0.2,2.1-1.4,3.1-3.5,3.1h-10.4c-2,0-2.9-0.7-2.6-3.1L7147.9,6917.9z"/>
	<path id="XMLID_80_" clip-path="url(#XMLID_1638_)" fill="#373535" d="M7194.8,6930.5h26.7l3.8-30.9c0.3-2.2,1.2-3.2,3.5-3.2h10.8
		c2.1,0,2.7,1,2.5,3.2l-9.7,77.9c-0.2,2.2-1,3.2-3.1,3.2h-10.8c-2.2,0-3-1.1-2.7-3.2l4.1-33.1h-26.8l-4.1,33.1
		c-0.2,2.1-1.1,3.2-3.4,3.2h-10.8c-2.1,0-3-1-2.7-3.2l9.7-77.9c0.2-2.2,1.2-3.2,3.4-3.2h10.8c2.2,0,2.9,1,2.6,3.2L7194.8,6930.5z"/>
	<path id="XMLID_79_" clip-path="url(#XMLID_1638_)" fill="#347FC1" d="M6603.1,6937c10.2,28.2,41.4,42.9,69.6,32.7
		c28.3-10.2,42.9-41.4,32.7-69.6c-10.2-28.2-41.4-42.9-69.6-32.7C6607.5,6877.5,6592.9,6908.7,6603.1,6937"/>
	<path id="XMLID_78_" clip-path="url(#XMLID_1638_)" fill="#347FC1" d="M6533.9,7037.8c-10.7,18.9-4,42.8,14.9,53.5
		c18.9,10.7,42.8,4,53.5-14.9c10.7-18.9,4-42.8-14.9-53.5C6568.5,7012.3,6544.6,7018.9,6533.9,7037.8"/>
	<path id="XMLID_77_" clip-path="url(#XMLID_1638_)" fill="#347FC1" d="M6477.4,6961.6c-2.5,12.3,5.5,24.3,17.8,26.8
		c12.3,2.5,24.3-5.5,26.8-17.8c2.5-12.3-5.5-24.3-17.8-26.8C6491.9,6941.3,6479.9,6949.3,6477.4,6961.6"/>
	<path id="XMLID_76_" clip-path="url(#XMLID_1638_)" fill="#373535" d="M6804.5,6980.8c-2.2,0-3.2-1-3.6-3.1l-13.5-78.2
		c-0.4-2,0.5-3.1,2.7-3.1h11.5c2.2,0,2.9,1.1,3.2,3.1l6.8,42.2c1,6.3,0.9,17.9,0.9,18c0.1-0.6,3.2-12.5,5.5-17.9l17.3-42.3
		c0.9-2,1.9-3.1,4.1-3.1h11c2.1,0,2.7,1.1,1.9,3.1l-32.8,78.2c-0.9,2.1-2,3.1-4.2,3.1H6804.5z"/>
	<path id="XMLID_122_" clip-path="url(#XMLID_1638_)" fill="#373535" d="M6887.5,6896.4c2.1,0,3,1,3.4,3.1l13.7,78.2
		c0.4,2-0.4,3.1-2.6,3.1H6891c-2.2,0-3-1.1-3.4-3.1l-2.5-15.1h-23.1l-6.2,15.1c-0.7,2-1.7,3.1-4,3.1h-10.3c-2.1,0-2.9-1.1-2-3.1
		l32.8-78.2c0.9-2.1,2.1-3.1,4.2-3.1H6887.5z M6880.8,6935.5c-1.1-6.5-1-22.7-1-22.7c-0.1,0.5-4.1,17.1-6.5,22.6l-6,13.9h15.8
		L6880.8,6935.5z"/>
	<path id="XMLID_119_" clip-path="url(#XMLID_1638_)" fill="#373535" d="M6935.4,6948.6l-3.5,28.9c-0.2,2.2-1.1,3.2-3.4,3.2h-10.8
		c-1.7,0-3.1-0.6-2.7-3.2l9.7-77.9c0.2-2.2,1.2-3.2,3.3-3.2h25.2c20.4,0,28.4,8.8,28.4,19c0,0.7,0,1.9-0.1,2.9l-1.2,10.8
		c-0.9,7.4-5.1,14.3-15.6,17.5l9.3,31c0.6,2-1.1,3.2-3.2,3.2h-10.7c-2,0-2.4-1.5-2.9-3.2l-8.7-28.9h-0.2H6935.4z M6940.3,6910.3
		l-3.1,24.4h12.4c8.6,0,13.7-2.5,14.5-8.7l0.7-5.1c0.1-1,0.1-1.7,0.1-2.2c0-5.5-3.7-8.4-12-8.4H6940.3z"/>
	<path id="XMLID_71_" clip-path="url(#XMLID_1638_)" fill="#373535" d="M7049.5,6977.7c-0.2,2.1-1,3.1-3.2,3.1h-9.3
		c-1.7,0-2.4-0.5-2.9-1.5l-19-41.1c-1.4-3.1-3-7.4-3.7-10.2l-6.1,49.6c-0.2,2.1-1,3.1-3.2,3.1h-9.8c-2.2,0-3-1-2.7-3.1l9.6-78.2
		c0.2-2.1,1.2-3.1,3.5-3.1h9.3c1.5,0,2.2,0.4,2.6,1.2l19.7,42.8c1.1,2.5,2.6,6.5,3.1,8.7l6.1-49.6c0.2-2.1,1.2-3.1,3.3-3.1h9.8
		c2.2,0,2.9,1,2.6,3.1L7049.5,6977.7z"/>
	<path id="XMLID_70_" clip-path="url(#XMLID_1638_)" fill="#373535" d="M7084,6977.6c-0.2,2.2-1.1,3.2-3.4,3.2h-10.8
		c-2.1,0-3-1-2.7-3.2l9.7-77.9c0.2-2.2,1.2-3.2,3.4-3.2h10.8c2.2,0,2.9,1,2.6,3.2L7084,6977.6z"/>
	<path id="XMLID_69_" clip-path="url(#XMLID_1638_)" fill="#373535" d="M7147.9,6917.9c0.1-1,0.1-0.9,0.1-1.2
		c0-5.2-3.8-7.8-11.3-7.8c-7.9,0-12.4,3-13,9.1l-0.1,1.2c-0.1,1.1-0.1,1.5-0.1,2c0,3.4,2.2,4.5,4.2,5.2l20.5,7.7
		c8.2,3.1,12.8,8.7,12.8,16.1c0,0.6-0.1,1.9-0.2,3l-0.9,8.4c-1.1,10.4-8.8,20.2-31.5,20.2c-20.2,0-27.9-8.6-27.9-18.1
		c0-0.5,0-1.4,0.3-3l0.9-6.9c0.2-2.2,1.2-3.2,3.4-3.2h10.4c2.2,0,2.9,1.1,2.6,3.2l-0.6,4.7c-0.1,1-0.1,1.7-0.1,2.4
		c0,5.2,4.3,7.6,12.3,7.6c8.3,0,13.2-2.9,14-9.1l0.5-3.5c0.1-0.9,0.1-1.5,0.1-1.7c0-4.1-5-6.2-9.4-7.9l-17.3-6.8
		c-6.2-2.5-10.7-7.8-10.7-14.5c0-0.6,0.1-1.7,0.3-3l0.7-6.2c1.2-10.4,7.7-20.2,30.2-20.2c20,0,26.8,8.6,26.8,17.7
		c0,0.6,0,1.1-0.1,2.5l-0.5,5.1c-0.2,2.1-1.4,3.1-3.5,3.1h-10.4c-2,0-2.9-0.7-2.6-3.1L7147.9,6917.9z"/>
	<path id="XMLID_68_" clip-path="url(#XMLID_1638_)" fill="#373535" d="M7194.8,6930.5h26.7l3.8-30.9c0.3-2.2,1.2-3.2,3.5-3.2h10.8
		c2.1,0,2.7,1,2.5,3.2l-9.7,77.9c-0.2,2.2-1,3.2-3.1,3.2h-10.8c-2.2,0-3-1.1-2.7-3.2l4.1-33.1h-26.8l-4.1,33.1
		c-0.2,2.1-1.1,3.2-3.4,3.2h-10.8c-2.1,0-3-1-2.7-3.2l9.7-77.9c0.2-2.2,1.2-3.2,3.4-3.2h10.8c2.2,0,2.9,1,2.6,3.2L7194.8,6930.5z"/>
	<path id="XMLID_67_" clip-path="url(#XMLID_1638_)" fill="#347FC1" d="M6603.1,6937c10.2,28.2,41.4,42.9,69.6,32.7
		c28.3-10.2,42.9-41.4,32.7-69.6c-10.2-28.2-41.4-42.9-69.6-32.7C6607.5,6877.5,6592.9,6908.7,6603.1,6937"/>
	<path id="XMLID_66_" clip-path="url(#XMLID_1638_)" fill="#347FC1" d="M6533.9,7037.8c-10.7,18.9-4,42.8,14.9,53.5
		c18.9,10.7,42.8,4,53.5-14.9c10.7-18.9,4-42.8-14.9-53.5C6568.5,7012.3,6544.6,7018.9,6533.9,7037.8"/>
	<path id="XMLID_65_" clip-path="url(#XMLID_1638_)" fill="#347FC1" d="M6477.4,6961.6c-2.5,12.3,5.5,24.3,17.8,26.8
		c12.3,2.5,24.3-5.5,26.8-17.8c2.5-12.3-5.5-24.3-17.8-26.8C6491.9,6941.3,6479.9,6949.3,6477.4,6961.6"/>
</g>
<rect id="XMLID_581_" x="6481.7" y="7464.5" fill="none" width="291.9" height="59.3"/>
<text id="XMLID_580_" transform="matrix(1 0 0 1 6481.6616 7506.0073)" font-family="'MyriadPro-CondIt'" font-size="60px">MONTHLY </text>
<rect id="XMLID_566_" x="6481.7" y="7392.4" fill="none" width="268.6" height="43.1"/>
<text id="XMLID_565_" transform="matrix(1 0 0 1 6481.6616 7433.9292)" font-family="'MyriadPro-CondIt'" font-size="60px">DAILY </text>
<line id="XMLID_973_" fill="none" stroke="#000000" stroke-width="5" stroke-miterlimit="10" x1="6481.7" y1="7368.5" x2="7077.6" y2="7368.5"/>
<rect id="XMLID_1176_" x="6782.2" y="7393.2" fill="none" width="284.2" height="43.1"/>
<text id="XMLID_1177_" transform="matrix(1 0 0 1 6904.3066 7434.7524)" font-family="'MyriadPro-CondIt'" font-size="60px">#10000#</text>
<rect id="XMLID_1179_" x="6481.7" y="7309.6" fill="none" width="268.6" height="43.1"/>
<text id="XMLID_1178_" transform="matrix(1 0 0 1 6481.6616 7351.1431)" font-family="'MyriadPro-CondIt'" font-size="60px">THIS YEAR</text>
<rect id="XMLID_1259_" x="7327.5" y="7309.6" fill="none" width="456.5" height="43.1"/>
<text id="XMLID_1258_" transform="matrix(1 0 0 1 7327.5459 7351.1431)" font-family="'MyriadPro-CondIt'" font-size="60px">PREVIOUS YEAR</text>
<rect id="XMLID_172_" x="6782.2" y="7464.5" fill="none" width="284.2" height="43.1"/>
<text id="XMLID_171_" transform="matrix(1 0 0 1 6872.8652 7506.0073)" font-family="'MyriadPro-CondIt'" font-size="60px">%10000%</text>
<rect id="XMLID_180_" x="7327.5" y="7465.3" fill="none" width="291.9" height="59.3"/>
<text id="XMLID_179_" transform="matrix(1 0 0 1 7327.5459 7506.8315)" font-family="'MyriadPro-CondIt'" font-size="60px">MONTHLY </text>
<rect id="XMLID_178_" x="7327.5" y="7393.2" fill="none" width="268.6" height="43.1"/>
<text id="XMLID_177_" transform="matrix(1 0 0 1 7327.5459 7434.7524)" font-family="'MyriadPro-CondIt'" font-size="60px">DAILY </text>
<rect id="XMLID_176_" x="7634.7" y="7394.1" fill="none" width="284.2" height="43.1"/>
<text id="XMLID_175_" transform="matrix(1 0 0 1 7744.2998 7435.5767)" font-family="'MyriadPro-CondIt'" font-size="60px">&amp;10000&amp;</text>
<rect id="XMLID_174_" x="7634.7" y="7465.3" fill="none" width="284.2" height="43.1"/>
<text id="XMLID_173_" transform="matrix(1 0 0 1 7766.3789 7506.8315)" font-family="'MyriadPro-CondIt'" font-size="60px">?10000?</text>
<rect id="XMLID_264_" x="6935.6" y="7035.7" fill="none" width="527.5" height="52.3"/>
<text id="XMLID_263_" transform="matrix(1 0 0 1 7081.1055 7077.1782)" font-family="'MyriadPro-CondIt'" font-size="60px">DOWNLOADS</text>
<line id="XMLID_28_" fill="none" stroke="#000000" stroke-width="5" stroke-miterlimit="10" x1="7327.5" y1="7368.5" x2="7923.5" y2="7368.5"/>
</svg>
